<?xml version="1.0" encoding="UTF-8"?>
<svg width="224px" height="274px" viewBox="0 0 224 274" version="1.1" xmlns="http://www.w3.org/2000/svg" xmlns:xlink="http://www.w3.org/1999/xlink">
    <!-- Generator: Sketch 56.3 (81716) - https://sketch.com -->
    <title>negative</title>
    <desc>Created with Sketch.</desc>
    <defs>
        <filter x="-5.3%" y="-36.0%" width="110.7%" height="172.0%" filterUnits="objectBoundingBox" id="filter-1">
            <feGaussianBlur stdDeviation="3" in="SourceGraphic"></feGaussianBlur>
        </filter>
    </defs>
    <g id="Page-1" stroke="none" stroke-width="1" fill="none" fill-rule="evenodd">
        <g id="negative" transform="translate(10.000000, 10.000000)">
            <g id="Group">
                <circle id="Oval" stroke="#B40F57" stroke-width="19" fill="#FFFFFF" cx="102" cy="102" r="102"></circle>
                <g id="times" transform="translate(46.000000, 47.000000)" fill="#B40F57" fill-rule="nonzero">
                    <path d="M69.6680226,56.4976138 L109.768307,16.4905861 C113.4251,12.8337929 113.4251,6.90495979 109.768307,3.24816664 C106.111514,-0.408626506 100.18268,-0.408626506 96.5258873,3.24816664 L56.5188596,43.3484508 L16.5118319,3.24816664 C12.8550388,-0.408626413 6.92620571,-0.408626368 3.2694126,3.24816674 C-0.38738051,6.90495985 -0.387380554,12.8337929 3.2694125,16.4905861 L43.3696967,56.4976138 L3.2694125,96.5046415 C1.50394946,98.2556866 0.510901604,100.639284 0.510901604,103.125851 C0.510901604,105.612419 1.50394946,107.996016 3.2694125,109.747061 C5.02045762,111.512524 7.40405454,112.505572 9.89062221,112.505572 C12.3771899,112.505572 14.7607868,111.512524 16.5118319,109.747061 L56.5188596,69.6467767 L96.5258873,109.747061 C98.2769324,111.512524 100.660529,112.505572 103.147097,112.505572 C105.633665,112.505572 108.017262,111.512524 109.768307,109.747061 C111.53377,107.996016 112.526818,105.612419 112.526818,103.125851 C112.526818,100.639284 111.53377,98.2556866 109.768307,96.5046415 L69.6680226,56.4976138 Z" id="Path"></path>
                </g>
            </g>
            <ellipse id="Oval" fill="#EDE7E9" filter="url(#filter-1)" cx="102.5" cy="244.5" rx="84.5" ry="12.5"></ellipse>
        </g>
    </g>
</svg>